<svg xmlns="http://www.w3.org/2000/svg" viewBox="0 0 64 64" width="64" height="64">
  <circle cx="32" cy="32" r="30" fill="#333"/>
  <path d="M32 0a32 32 0 1 0 32 32A31.95 31.95 0 0 0 32 0zm0 60a28 28 0 1 1 28-28 28.031 28.031 0 0 1-28 28z" fill="#FFC107"/>
  <path d="M32 2a30 30 0 1 0 30 30A29.96 29.96 0 0 0 32 2zm0 56a26 26 0 1 1 26-26 26.03 26.03 0 0 1-26 26z" fill="#F57C00"/>
  <path d="M33 48a1 1 0 0 1-.66-.25l-18-16a1 1 0 1 1 1.32-1.5L33 45.1 50.34 30.25a1 1 0 0 1 1.32 1.5l-18 16a1 1 0 0 1-.66.25z" fill="#FFC107"/>
</svg>
